<svg width="21" height="20" viewBox="0 0 21 20" fill="none" xmlns="http://www.w3.org/2000/svg">
<path d="M10.04 0C8.72682 0 7.42646 0.258658 6.2132 0.761205C4.99995 1.26375 3.89756 2.00035 2.96897 2.92893C1.09361 4.8043 0.0400391 7.34784 0.0400391 10C0.0400391 14.42 2.91004 18.17 6.88004 19.5C7.38004 19.58 7.54004 19.27 7.54004 19V17.31C4.77004 17.91 4.18004 15.97 4.18004 15.97C3.72004 14.81 3.07004 14.5 3.07004 14.5C2.16004 13.88 3.14004 13.9 3.14004 13.9C4.14004 13.97 4.67004 14.93 4.67004 14.93C5.54004 16.45 7.01004 16 7.58004 15.76C7.67004 15.11 7.93004 14.67 8.21004 14.42C5.99004 14.17 3.66004 13.31 3.66004 9.5C3.66004 8.39 4.04004 7.5 4.69004 6.79C4.59004 6.54 4.24004 5.5 4.79004 4.15C4.79004 4.15 5.63004 3.88 7.54004 5.17C8.33004 4.95 9.19004 4.84 10.04 4.84C10.89 4.84 11.75 4.95 12.54 5.17C14.45 3.88 15.29 4.15 15.29 4.15C15.84 5.5 15.49 6.54 15.39 6.79C16.04 7.5 16.42 8.39 16.42 9.5C16.42 13.32 14.08 14.16 11.85 14.41C12.21 14.72 12.54 15.33 12.54 16.26V19C12.54 19.27 12.7 19.59 13.21 19.5C17.18 18.16 20.04 14.42 20.04 10C20.04 8.68678 19.7814 7.38642 19.2788 6.17317C18.7763 4.95991 18.0397 3.85752 17.1111 2.92893C16.1825 2.00035 15.0801 1.26375 13.8669 0.761205C12.6536 0.258658 11.3533 0 10.04 0Z" fill="white"/>
</svg>
